<svg xmlns="http://www.w3.org/2000/svg" width="1200" height="630" viewBox="0 0 1200 630" fill="none">
  <rect width="1200" height="630" fill="#0a0a0a" />
  <rect width="1200" height="630" fill="url(#g)" />
  <defs>
    <radialGradient id="g" cx="0.5" cy="0.0" r="1.1">
      <stop offset="0" stop-color="#11331f" />
      <stop offset="1" stop-color="#0a0a0a" />
    </radialGradient>
  </defs>

  <!-- trophy -->
  <g
    transform="translate(120 200) scale(8)"
    fill="none"
    stroke="#fbbf24"
    stroke-width="2"
    stroke-linecap="round"
    stroke-linejoin="round"
  >
    <path d="M6 9H4.5a2.5 2.5 0 0 1 0-5H6" />
    <path d="M18 9h1.5a2.5 2.5 0 0 0 0-5H18" />
    <path d="M4 22h16" />
    <path d="M10 14.66V17c0 .55-.47.98-.97 1.21C7.85 18.75 7 20.24 7 22" />
    <path d="M14 14.66V17c0 .55.47.98.97 1.21C16.15 18.75 17 20.24 17 22" />
    <path d="M18 2H6v7a6 6 0 0 0 12 0V2Z" />
  </g>

  <text x="340" y="290" font-family="Arial, Helvetica, sans-serif" font-size="84" font-weight="800" fill="#fafafa">World Cup 2026</text>
  <text x="344" y="350" font-family="Arial, Helvetica, sans-serif" font-size="36" font-weight="600" fill="#a1a1aa">Live Dashboard</text>
  <text x="344" y="416" font-family="Arial, Helvetica, sans-serif" font-size="30" fill="#71717a">Live scores · standings · match detail · teams · stats</text>

  <rect x="344" y="470" width="300" height="3" rx="1.5" fill="#16a34a" />
  <text x="344" y="540" font-family="Arial, Helvetica, sans-serif" font-size="26" fill="#52525b">worldcup-dashboard.mrtahyr.workers.dev</text>
</svg>
